<svg width="55" height="48" viewBox="0 0 55 48" fill="none" xmlns="http://www.w3.org/2000/svg">
<path fill-rule="evenodd" clip-rule="evenodd" d="M5.23808 0H49.7619C52.6548 0 55 2.34542 55 5.23808C55 8.13101 52.6548 10.4762 49.7619 10.4762H27.5H5.23808C2.34515 10.4762 0 8.13101 0 5.23808C0 2.34542 2.34515 0 5.23808 0Z" fill="white"/>
<path fill-rule="evenodd" clip-rule="evenodd" d="M5.23808 18.5121H49.7619C52.6548 18.5121 55 20.8575 55 23.7502C55 26.6431 52.6548 28.9882 49.7619 28.9882H5.23808C2.34515 28.9882 0 26.6431 0 23.7502C0 20.8575 2.34515 18.5121 5.23808 18.5121Z" fill="white"/>
<path fill-rule="evenodd" clip-rule="evenodd" d="M5.23808 37.024H49.7619C52.6548 37.024 55 39.3692 55 42.2621C55 45.1551 52.6548 47.5002 49.7619 47.5002H5.23808C2.34515 47.5002 0 45.1551 0 42.2621C0 39.3692 2.34515 37.024 5.23808 37.024Z" fill="white"/>
</svg>
