<svg xmlns="http://www.w3.org/2000/svg" width="1387" height="525" viewBox="0 0 1387 525" fill="none">
<g filter="url(#filter0_d_78_339)">
<path fill-rule="evenodd" clip-rule="evenodd" d="M75.3722 27H1311.63C1332.82 27 1350 44.1798 1350 65.3722V439.074C1350 460.266 1332.82 477.446 1311.63 477.446H75.3722C54.1798 477.446 37 460.266 37 439.074V65.3722C37 44.1798 54.1798 27 75.3722 27Z" fill="url(#paint0_linear_78_339)"/>
<path d="M1311.63 24.5H75.3722C52.7991 24.5 34.5 42.7991 34.5 65.3722V439.074C34.5 461.647 52.7991 479.946 75.3722 479.946H1311.63C1334.2 479.946 1352.5 461.647 1352.5 439.074V65.3722C1352.5 42.7991 1334.2 24.5 1311.63 24.5Z" stroke="url(#paint1_linear_78_339)" stroke-width="5"/>
</g>
<defs>
<filter id="filter0_d_78_339" x="0.4" y="0.410129" width="1386.2" height="523.646" filterUnits="userSpaceOnUse" color-interpolation-filters="sRGB">
<feFlood flood-opacity="0" result="BackgroundImageFix"/>
<feColorMatrix in="SourceAlpha" type="matrix" values="0 0 0 0 0 0 0 0 0 0 0 0 0 0 0 0 0 0 127 0" result="hardAlpha"/>
<feOffset dy="10.0101"/>
<feGaussianBlur stdDeviation="15.8"/>
<feColorMatrix type="matrix" values="0 0 0 0 0.678431 0 0 0 0 0.191562 0 0 0 0 0.287892 0 0 0 0.3 0"/>
<feBlend mode="multiply" in2="BackgroundImageFix" result="effect1_dropShadow_78_339"/>
<feBlend mode="normal" in="SourceGraphic" in2="effect1_dropShadow_78_339" result="shape"/>
</filter>
<linearGradient id="paint0_linear_78_339" x1="800" y1="732.5" x2="879" y2="69" gradientUnits="userSpaceOnUse">
<stop stop-color="#FFFCF2"/>
<stop offset="0.415626" stop-color="#F4B8C0"/>
<stop offset="1" stop-color="#EB7B93"/>
</linearGradient>
<linearGradient id="paint1_linear_78_339" x1="693.5" y1="27" x2="693.5" y2="477.446" gradientUnits="userSpaceOnUse">
<stop stop-color="white"/>
<stop offset="1" stop-color="white" stop-opacity="0"/>
</linearGradient>
</defs>
</svg>